<mxfile host="65bd71144e">
    <diagram id="Lg1xptxk-0HZv7t5sDl4" name="Page-1">
        <mxGraphModel dx="2040" dy="2283" grid="1" gridSize="10" guides="1" tooltips="1" connect="1" arrows="1" fold="1" page="1" pageScale="1" pageWidth="850" pageHeight="1100" math="0" shadow="0">
            <root>
                <mxCell id="0"/>
                <mxCell id="1" parent="0"/>
                <mxCell id="5" value="" style="edgeStyle=none;html=1;fontColor=#FFFFFF;shape=flexArrow;" edge="1" parent="1" source="3">
                    <mxGeometry relative="1" as="geometry">
                        <mxPoint x="260.59451927542955" y="169.61309800278684" as="targetPoint"/>
                    </mxGeometry>
                </mxCell>
                <mxCell id="3" value="&lt;b&gt;&lt;font color=&quot;#ffffff&quot;&gt;START&lt;/font&gt;&lt;/b&gt;" style="ellipse;whiteSpace=wrap;html=1;fillColor=#fa6800;fontColor=#000000;strokeColor=#C73500;" vertex="1" parent="1">
                    <mxGeometry x="100" y="130" width="120" height="80" as="geometry"/>
                </mxCell>
                <mxCell id="7" value="" style="edgeStyle=none;html=1;fontSize=12;fontColor=#FFFFFF;" edge="1" parent="1" target="6">
                    <mxGeometry relative="1" as="geometry">
                        <mxPoint x="580" y="169" as="sourcePoint"/>
                    </mxGeometry>
                </mxCell>
                <mxCell id="12" value="" style="edgeStyle=none;html=1;fontSize=17;fontColor=#FFFFFF;" edge="1" parent="1" source="6" target="11">
                    <mxGeometry relative="1" as="geometry"/>
                </mxCell>
                <mxCell id="6" value="Input Pengguna" style="shape=parallelogram;perimeter=parallelogramPerimeter;whiteSpace=wrap;html=1;fixedSize=1;fillColor=#f0a30a;strokeColor=#BD7000;fontColor=#FFFFFF;" vertex="1" parent="1">
                    <mxGeometry x="670" y="139" width="120" height="60" as="geometry"/>
                </mxCell>
                <mxCell id="10" value="&lt;ol style=&quot;font-size: 17px;&quot;&gt;&lt;li style=&quot;font-size: 17px;&quot;&gt;Manajemen Inventaris&lt;/li&gt;&lt;li style=&quot;font-size: 17px;&quot;&gt;Penjualan dan Kasir&lt;/li&gt;&lt;li style=&quot;font-size: 17px;&quot;&gt;Manajemen Pelanggan&lt;/li&gt;&lt;li style=&quot;font-size: 17px;&quot;&gt;Analisis Asimtotik&lt;/li&gt;&lt;li style=&quot;font-size: 17px;&quot;&gt;Pengolahan Transaksi&lt;/li&gt;&lt;li style=&quot;font-size: 17px;&quot;&gt;Pengelolaan Diskon dan Promosi&lt;/li&gt;&lt;li style=&quot;font-size: 17px;&quot;&gt;Analisis Data Penjualan&lt;/li&gt;&lt;li style=&quot;font-size: 17px;&quot;&gt;keluar&lt;/li&gt;&lt;/ol&gt;" style="shape=parallelogram;perimeter=parallelogramPerimeter;whiteSpace=wrap;html=1;fixedSize=1;fontSize=17;fontColor=#ffffff;fillColor=#647687;strokeColor=#314354;" vertex="1" parent="1">
                    <mxGeometry x="264" y="79" width="346" height="215" as="geometry"/>
                </mxCell>
                <mxCell id="11" value="Input = 1" style="rhombus;whiteSpace=wrap;html=1;fillColor=#f0a30a;strokeColor=#BD7000;fontColor=#FFFFFF;" vertex="1" parent="1">
                    <mxGeometry x="872" y="129" width="80" height="80" as="geometry"/>
                </mxCell>
                <mxCell id="69" value="" style="edgeStyle=none;html=1;fontSize=17;fontColor=#FFFFFF;" edge="1" parent="1" source="13">
                    <mxGeometry relative="1" as="geometry">
                        <mxPoint x="1275" y="169" as="targetPoint"/>
                    </mxGeometry>
                </mxCell>
                <mxCell id="13" value="Menu Manajemen Inventaris" style="whiteSpace=wrap;html=1;fillColor=#fa6800;strokeColor=#C73500;fontColor=#000000;" vertex="1" parent="1">
                    <mxGeometry x="1055" y="139" width="120" height="60" as="geometry"/>
                </mxCell>
                <mxCell id="17" value="" style="endArrow=classic;html=1;fontSize=17;fontColor=#FFFFFF;" edge="1" parent="1">
                    <mxGeometry relative="1" as="geometry">
                        <mxPoint x="952" y="169" as="sourcePoint"/>
                        <mxPoint x="1052" y="169" as="targetPoint"/>
                    </mxGeometry>
                </mxCell>
                <mxCell id="18" value="True" style="edgeLabel;resizable=0;html=1;align=center;verticalAlign=middle;fontSize=17;fontColor=#FFFFFF;" connectable="0" vertex="1" parent="17">
                    <mxGeometry relative="1" as="geometry"/>
                </mxCell>
                <mxCell id="19" value="" style="endArrow=classic;html=1;fontSize=17;fontColor=#FFFFFF;" edge="1" parent="1">
                    <mxGeometry relative="1" as="geometry">
                        <mxPoint x="911.62" y="210" as="sourcePoint"/>
                        <mxPoint x="911.62" y="280" as="targetPoint"/>
                    </mxGeometry>
                </mxCell>
                <mxCell id="20" value="False" style="edgeLabel;resizable=0;html=1;align=center;verticalAlign=middle;fontSize=17;fontColor=#FFFFFF;" connectable="0" vertex="1" parent="19">
                    <mxGeometry relative="1" as="geometry"/>
                </mxCell>
                <mxCell id="21" value="Input = 2" style="rhombus;whiteSpace=wrap;html=1;fontSize=17;fontColor=#000000;fillColor=#f0a30a;strokeColor=#BD7000;" vertex="1" parent="1">
                    <mxGeometry x="872" y="280" width="80" height="80" as="geometry"/>
                </mxCell>
                <mxCell id="22" value="" style="endArrow=classic;html=1;fontSize=17;fontColor=#FFFFFF;" edge="1" parent="1">
                    <mxGeometry relative="1" as="geometry">
                        <mxPoint x="950" y="320" as="sourcePoint"/>
                        <mxPoint x="1050" y="320" as="targetPoint"/>
                    </mxGeometry>
                </mxCell>
                <mxCell id="23" value="True" style="edgeLabel;resizable=0;html=1;align=center;verticalAlign=middle;fontSize=17;fontColor=#FFFFFF;" connectable="0" vertex="1" parent="22">
                    <mxGeometry relative="1" as="geometry"/>
                </mxCell>
                <mxCell id="84" value="" style="edgeStyle=none;html=1;fontSize=17;fontColor=#FFFFFF;" edge="1" parent="1" source="25" target="83">
                    <mxGeometry relative="1" as="geometry"/>
                </mxCell>
                <mxCell id="25" value="&lt;span style=&quot;background-color: initial;&quot;&gt;Penjualan dan Kasir&lt;/span&gt;" style="rounded=0;whiteSpace=wrap;html=1;fontSize=17;fontColor=#000000;align=center;fillColor=#fa6800;strokeColor=#C73500;" vertex="1" parent="1">
                    <mxGeometry x="1055" y="294" width="120" height="60" as="geometry"/>
                </mxCell>
                <mxCell id="31" value="" style="edgeStyle=none;html=1;fontSize=17;fontColor=#FFFFFF;startArrow=none;" edge="1" parent="1" source="32" target="30">
                    <mxGeometry relative="1" as="geometry"/>
                </mxCell>
                <mxCell id="26" value="Input = 3" style="rhombus;whiteSpace=wrap;html=1;fontSize=17;fillColor=#f0a30a;strokeColor=#BD7000;fontColor=#000000;" vertex="1" parent="1">
                    <mxGeometry x="872" y="440" width="80" height="80" as="geometry"/>
                </mxCell>
                <mxCell id="28" value="" style="endArrow=classic;html=1;fontSize=17;fontColor=#FFFFFF;exitX=0.5;exitY=1;exitDx=0;exitDy=0;entryX=0.5;entryY=0;entryDx=0;entryDy=0;" edge="1" parent="1">
                    <mxGeometry relative="1" as="geometry">
                        <mxPoint x="913.0000000000002" y="360" as="sourcePoint"/>
                        <mxPoint x="913.0000000000002" y="440" as="targetPoint"/>
                    </mxGeometry>
                </mxCell>
                <mxCell id="29" value="False" style="edgeLabel;resizable=0;html=1;align=center;verticalAlign=middle;fontSize=17;fontColor=#FFFFFF;" connectable="0" vertex="1" parent="28">
                    <mxGeometry relative="1" as="geometry"/>
                </mxCell>
                <mxCell id="97" value="" style="edgeStyle=none;html=1;fontSize=17;fontColor=#FFFFFF;" edge="1" parent="1" source="30" target="96">
                    <mxGeometry relative="1" as="geometry"/>
                </mxCell>
                <mxCell id="30" value="Manajemen Pelanggan" style="whiteSpace=wrap;html=1;fontSize=17;fillColor=#fa6800;strokeColor=#C73500;fontColor=#000000;" vertex="1" parent="1">
                    <mxGeometry x="1055" y="450" width="120" height="60" as="geometry"/>
                </mxCell>
                <mxCell id="33" value="" style="edgeStyle=none;html=1;fontSize=17;fontColor=#FFFFFF;endArrow=none;" edge="1" parent="1" source="26" target="32">
                    <mxGeometry relative="1" as="geometry">
                        <mxPoint x="952.0000000000002" y="480" as="sourcePoint"/>
                        <mxPoint x="1055" y="480" as="targetPoint"/>
                    </mxGeometry>
                </mxCell>
                <mxCell id="32" value="True" style="text;html=1;align=center;verticalAlign=middle;resizable=0;points=[];autosize=1;strokeColor=none;fillColor=none;fontSize=17;fontColor=#FFFFFF;" vertex="1" parent="1">
                    <mxGeometry x="971" y="465" width="60" height="30" as="geometry"/>
                </mxCell>
                <mxCell id="36" value="False" style="endArrow=classic;html=1;fontSize=17;fontColor=#FFFFFF;" edge="1" parent="1">
                    <mxGeometry relative="1" as="geometry">
                        <mxPoint x="910" y="520" as="sourcePoint"/>
                        <mxPoint x="911.344262295082" y="600.655737704918" as="targetPoint"/>
                    </mxGeometry>
                </mxCell>
                <mxCell id="37" value="False" style="edgeLabel;resizable=0;html=1;align=center;verticalAlign=middle;fontSize=17;fontColor=#FFFFFF;" connectable="0" vertex="1" parent="36">
                    <mxGeometry relative="1" as="geometry"/>
                </mxCell>
                <mxCell id="53" value="" style="edgeStyle=none;html=1;fontSize=17;fontColor=#FFFFFF;startArrow=none;" edge="1" parent="1" source="56" target="52">
                    <mxGeometry relative="1" as="geometry"/>
                </mxCell>
                <mxCell id="61" value="" style="edgeStyle=none;html=1;fontSize=17;fontColor=#FFFFFF;" edge="1" parent="1" source="50" target="60">
                    <mxGeometry relative="1" as="geometry"/>
                </mxCell>
                <mxCell id="50" value="Input = 6" style="rhombus;whiteSpace=wrap;html=1;fontSize=17;fontColor=#000000;fillColor=#f0a30a;strokeColor=#BD7000;" vertex="1" parent="1">
                    <mxGeometry x="873" y="600" width="80" height="80" as="geometry"/>
                </mxCell>
                <mxCell id="63" value="" style="edgeStyle=none;html=1;fontSize=17;fontColor=#FFFFFF;" edge="1" parent="1" source="52" target="62">
                    <mxGeometry relative="1" as="geometry"/>
                </mxCell>
                <mxCell id="120" value="" style="edgeStyle=none;html=1;fontSize=17;fontColor=#FFFFFF;" edge="1" parent="1" source="52" target="119">
                    <mxGeometry relative="1" as="geometry"/>
                </mxCell>
                <mxCell id="52" value="Input = 7" style="rhombus;whiteSpace=wrap;html=1;fontSize=17;fontColor=#000000;fillColor=#f0a30a;strokeColor=#BD7000;" vertex="1" parent="1">
                    <mxGeometry x="873" y="740" width="80" height="80" as="geometry"/>
                </mxCell>
                <mxCell id="57" value="" style="edgeStyle=none;html=1;fontSize=17;fontColor=#FFFFFF;endArrow=none;" edge="1" parent="1" source="50" target="56">
                    <mxGeometry relative="1" as="geometry">
                        <mxPoint x="912.0000000000002" y="1000" as="sourcePoint"/>
                        <mxPoint x="912.0000000000002" y="1080" as="targetPoint"/>
                    </mxGeometry>
                </mxCell>
                <mxCell id="56" value="False" style="text;html=1;align=center;verticalAlign=middle;resizable=0;points=[];autosize=1;strokeColor=none;fillColor=none;fontSize=17;fontColor=#FFFFFF;" vertex="1" parent="1">
                    <mxGeometry x="878" y="1030" width="70" height="30" as="geometry"/>
                </mxCell>
                <mxCell id="108" value="" style="edgeStyle=none;html=1;fontSize=17;fontColor=#FFFFFF;" edge="1" parent="1" source="60" target="107">
                    <mxGeometry relative="1" as="geometry"/>
                </mxCell>
                <mxCell id="60" value="Pengelolahan Diskon dan Promosi" style="whiteSpace=wrap;html=1;fontSize=17;fontColor=#000000;fillColor=#fa6800;strokeColor=#C73500;" vertex="1" parent="1">
                    <mxGeometry x="1055" y="605" width="120" height="70" as="geometry"/>
                </mxCell>
                <mxCell id="114" value="" style="edgeStyle=none;html=1;fontSize=17;fontColor=#FFFFFF;" edge="1" parent="1" source="62" target="113">
                    <mxGeometry relative="1" as="geometry"/>
                </mxCell>
                <mxCell id="62" value="Analisa Data Penjualan" style="whiteSpace=wrap;html=1;fontSize=17;fontColor=#000000;fillColor=#fa6800;strokeColor=#C73500;" vertex="1" parent="1">
                    <mxGeometry x="1055" y="750" width="120" height="60" as="geometry"/>
                </mxCell>
                <mxCell id="64" value="" style="endArrow=none;html=1;fontSize=17;fontColor=#FFFFFF;entryX=0.5;entryY=1;entryDx=0;entryDy=0;" edge="1" parent="1" target="52">
                    <mxGeometry width="50" height="50" relative="1" as="geometry">
                        <mxPoint x="912" y="1220" as="sourcePoint"/>
                        <mxPoint x="910" y="1200" as="targetPoint"/>
                    </mxGeometry>
                </mxCell>
                <mxCell id="65" value="" style="endArrow=none;html=1;fontSize=17;fontColor=#FFFFFF;" edge="1" parent="1">
                    <mxGeometry width="50" height="50" relative="1" as="geometry">
                        <mxPoint x="850" y="1220" as="sourcePoint"/>
                        <mxPoint x="910" y="1220" as="targetPoint"/>
                    </mxGeometry>
                </mxCell>
                <mxCell id="66" value="" style="endArrow=none;html=1;fontSize=17;fontColor=#FFFFFF;" edge="1" parent="1">
                    <mxGeometry width="50" height="50" relative="1" as="geometry">
                        <mxPoint x="850" y="1220" as="sourcePoint"/>
                        <mxPoint x="850" y="170" as="targetPoint"/>
                    </mxGeometry>
                </mxCell>
                <mxCell id="67" value="False" style="edgeLabel;html=1;align=center;verticalAlign=middle;resizable=0;points=[];fontSize=17;fontColor=#FFFFFF;" vertex="1" connectable="0" parent="66">
                    <mxGeometry x="0.2792" y="2" relative="1" as="geometry">
                        <mxPoint as="offset"/>
                    </mxGeometry>
                </mxCell>
                <mxCell id="74" value="" style="edgeStyle=none;html=1;fontSize=17;fontColor=#FFFFFF;" edge="1" parent="1" source="70" target="73">
                    <mxGeometry relative="1" as="geometry"/>
                </mxCell>
                <mxCell id="70" value="&lt;ol&gt;&lt;li&gt;Tambah Barang&amp;nbsp;&lt;/li&gt;&lt;li&gt;Lihat Stok Barang&lt;/li&gt;&lt;li&gt;Hapus Barang&lt;/li&gt;&lt;li&gt;Cari Barang&lt;/li&gt;&lt;li&gt;Kembali&lt;/li&gt;&lt;/ol&gt;" style="shape=parallelogram;perimeter=parallelogramPerimeter;whiteSpace=wrap;html=1;fixedSize=1;fontSize=17;fontColor=#000000;fillColor=#f0a30a;strokeColor=#BD7000;" vertex="1" parent="1">
                    <mxGeometry x="1275" y="43" width="225" height="211" as="geometry"/>
                </mxCell>
                <mxCell id="82" value="" style="edgeStyle=none;html=1;fontSize=17;fontColor=#FFFFFF;" edge="1" parent="1" source="73" target="81">
                    <mxGeometry relative="1" as="geometry"/>
                </mxCell>
                <mxCell id="73" value="Input&amp;nbsp; = 5" style="rhombus;whiteSpace=wrap;html=1;fontSize=17;fontColor=#000000;fillColor=#e3c800;strokeColor=#B09500;" vertex="1" parent="1">
                    <mxGeometry x="1652.5" y="122" width="80" height="55.5" as="geometry"/>
                </mxCell>
                <mxCell id="77" value="" style="endArrow=none;html=1;fontSize=17;fontColor=#FFFFFF;" edge="1" parent="1">
                    <mxGeometry width="50" height="50" relative="1" as="geometry">
                        <mxPoint x="1690" y="130" as="sourcePoint"/>
                        <mxPoint x="1690" as="targetPoint"/>
                    </mxGeometry>
                </mxCell>
                <mxCell id="80" value="True" style="edgeLabel;html=1;align=center;verticalAlign=middle;resizable=0;points=[];fontSize=17;fontColor=#FFFFFF;" vertex="1" connectable="0" parent="77">
                    <mxGeometry x="-0.3053" y="1" relative="1" as="geometry">
                        <mxPoint y="-1" as="offset"/>
                    </mxGeometry>
                </mxCell>
                <mxCell id="78" value="" style="endArrow=none;html=1;fontSize=17;fontColor=#FFFFFF;" edge="1" parent="1">
                    <mxGeometry width="50" height="50" relative="1" as="geometry">
                        <mxPoint x="650" as="sourcePoint"/>
                        <mxPoint x="1690" as="targetPoint"/>
                    </mxGeometry>
                </mxCell>
                <mxCell id="79" value="" style="endArrow=none;html=1;fontSize=17;fontColor=#FFFFFF;" edge="1" parent="1">
                    <mxGeometry width="50" height="50" relative="1" as="geometry">
                        <mxPoint x="650" y="170" as="sourcePoint"/>
                        <mxPoint x="650" as="targetPoint"/>
                    </mxGeometry>
                </mxCell>
                <mxCell id="81" value="Run Program" style="whiteSpace=wrap;html=1;fontSize=17;fontColor=#000000;fillColor=#fa6800;strokeColor=#C73500;" vertex="1" parent="1">
                    <mxGeometry x="1792.5" y="119.75" width="120" height="60" as="geometry"/>
                </mxCell>
                <mxCell id="86" style="edgeStyle=none;html=1;fontSize=17;fontColor=#FFFFFF;" edge="1" parent="1" source="83" target="85">
                    <mxGeometry relative="1" as="geometry"/>
                </mxCell>
                <mxCell id="126" value="" style="edgeStyle=none;html=1;fontSize=17;fontColor=#FFFFFF;" edge="1" parent="1" source="83" target="25">
                    <mxGeometry relative="1" as="geometry"/>
                </mxCell>
                <mxCell id="83" value="&lt;ol&gt;&lt;li&gt;Tambah pelnggan&lt;/li&gt;&lt;li&gt;Proses Pelanggan&lt;/li&gt;&lt;li&gt;kembali&lt;/li&gt;&lt;/ol&gt;" style="shape=parallelogram;perimeter=parallelogramPerimeter;whiteSpace=wrap;html=1;fixedSize=1;fontSize=17;fontColor=#000000;rounded=0;fillColor=#f0a30a;strokeColor=#BD7000;" vertex="1" parent="1">
                    <mxGeometry x="1255" y="280" width="255" height="86" as="geometry"/>
                </mxCell>
                <mxCell id="89" style="edgeStyle=none;html=1;entryX=0;entryY=0.5;entryDx=0;entryDy=0;fontSize=17;fontColor=#FFFFFF;" edge="1" parent="1" source="85" target="87">
                    <mxGeometry relative="1" as="geometry"/>
                </mxCell>
                <mxCell id="99" style="edgeStyle=none;html=1;fontSize=17;fontColor=#FFFFFF;" edge="1" parent="1" source="85">
                    <mxGeometry relative="1" as="geometry">
                        <mxPoint x="1990" as="targetPoint"/>
                        <Array as="points">
                            <mxPoint x="1692" y="240"/>
                            <mxPoint x="1990" y="240"/>
                        </Array>
                    </mxGeometry>
                </mxCell>
                <mxCell id="85" value="input 3" style="rhombus;whiteSpace=wrap;html=1;fontSize=17;fontColor=#000000;fillColor=#e3c800;strokeColor=#B09500;" vertex="1" parent="1">
                    <mxGeometry x="1653" y="293" width="77" height="74" as="geometry"/>
                </mxCell>
                <mxCell id="87" value="Run Program" style="whiteSpace=wrap;html=1;fontSize=17;fontColor=#000000;fillColor=#fa6800;strokeColor=#C73500;" vertex="1" parent="1">
                    <mxGeometry x="1810" y="300" width="120" height="60" as="geometry"/>
                </mxCell>
                <mxCell id="95" value="" style="endArrow=none;html=1;fontSize=17;fontColor=#FFFFFF;" edge="1" parent="1">
                    <mxGeometry width="50" height="50" relative="1" as="geometry">
                        <mxPoint x="1690" as="sourcePoint"/>
                        <mxPoint x="1990" as="targetPoint"/>
                    </mxGeometry>
                </mxCell>
                <mxCell id="101" value="" style="edgeStyle=none;html=1;fontSize=17;fontColor=#FFFFFF;" edge="1" parent="1" source="96" target="100">
                    <mxGeometry relative="1" as="geometry"/>
                </mxCell>
                <mxCell id="96" value="&lt;ol&gt;&lt;li&gt;llhat informasi pelanggan&lt;/li&gt;&lt;li&gt;kembali&lt;/li&gt;&lt;/ol&gt;" style="shape=parallelogram;perimeter=parallelogramPerimeter;whiteSpace=wrap;html=1;fixedSize=1;fontSize=17;fillColor=#f0a30a;strokeColor=#BD7000;fontColor=#000000;" vertex="1" parent="1">
                    <mxGeometry x="1254" y="423" width="176" height="140" as="geometry"/>
                </mxCell>
                <mxCell id="102" style="edgeStyle=none;html=1;fontSize=17;fontColor=#FFFFFF;" edge="1" parent="1">
                    <mxGeometry relative="1" as="geometry">
                        <mxPoint x="1990" y="225" as="targetPoint"/>
                        <mxPoint x="1691.6990049751244" y="465.19900497512435" as="sourcePoint"/>
                        <Array as="points">
                            <mxPoint x="1692" y="405"/>
                            <mxPoint x="2000" y="410"/>
                        </Array>
                    </mxGeometry>
                </mxCell>
                <mxCell id="106" value="" style="edgeStyle=none;html=1;fontSize=17;fontColor=#FFFFFF;" edge="1" parent="1" source="100" target="105">
                    <mxGeometry relative="1" as="geometry"/>
                </mxCell>
                <mxCell id="100" value="input = 2" style="rhombus;whiteSpace=wrap;html=1;fontSize=17;fillColor=#e3c800;strokeColor=#B09500;fontColor=#000000;" vertex="1" parent="1">
                    <mxGeometry x="1651.5" y="458" width="80" height="80" as="geometry"/>
                </mxCell>
                <mxCell id="105" value="Run Program" style="whiteSpace=wrap;html=1;fontSize=17;fillColor=#fa6800;strokeColor=#C73500;fontColor=#000000;" vertex="1" parent="1">
                    <mxGeometry x="1791.5" y="479" width="120" height="60" as="geometry"/>
                </mxCell>
                <mxCell id="110" value="" style="edgeStyle=none;html=1;fontSize=17;fontColor=#FFFFFF;" edge="1" parent="1" source="107" target="109">
                    <mxGeometry relative="1" as="geometry"/>
                </mxCell>
                <mxCell id="107" value="1. Tambah Diskon&lt;br&gt;2. potongan harga&lt;br&gt;3 Kembali" style="shape=parallelogram;perimeter=parallelogramPerimeter;whiteSpace=wrap;html=1;fixedSize=1;fontSize=17;fontColor=#000000;fillColor=#f0a30a;strokeColor=#BD7000;" vertex="1" parent="1">
                    <mxGeometry x="1255" y="610" width="175" height="100" as="geometry"/>
                </mxCell>
                <mxCell id="111" style="edgeStyle=none;html=1;fontSize=17;fontColor=#FFFFFF;" edge="1" parent="1" source="109">
                    <mxGeometry relative="1" as="geometry">
                        <mxPoint x="1800" y="660" as="targetPoint"/>
                    </mxGeometry>
                </mxCell>
                <mxCell id="124" value="" style="edgeStyle=none;html=1;fontSize=17;fontColor=#FFFFFF;" edge="1" parent="1" source="109" target="100">
                    <mxGeometry relative="1" as="geometry"/>
                </mxCell>
                <mxCell id="109" value="input = 3" style="rhombus;whiteSpace=wrap;html=1;fontSize=17;fontColor=#000000;fillColor=#e3c800;strokeColor=#B09500;" vertex="1" parent="1">
                    <mxGeometry x="1632" y="620" width="80" height="80" as="geometry"/>
                </mxCell>
                <mxCell id="112" value="run program" style="rounded=0;whiteSpace=wrap;html=1;fontSize=17;fontColor=#000000;fillColor=#fa6800;strokeColor=#C73500;" vertex="1" parent="1">
                    <mxGeometry x="1810" y="630" width="120" height="60" as="geometry"/>
                </mxCell>
                <mxCell id="116" value="" style="edgeStyle=none;html=1;fontSize=17;fontColor=#FFFFFF;" edge="1" parent="1" source="113" target="115">
                    <mxGeometry relative="1" as="geometry"/>
                </mxCell>
                <mxCell id="113" value="&lt;ol&gt;&lt;li&gt;&amp;nbsp;barang yang paling laku&lt;/li&gt;&lt;li&gt;kembali&lt;/li&gt;&lt;/ol&gt;" style="shape=parallelogram;perimeter=parallelogramPerimeter;whiteSpace=wrap;html=1;fixedSize=1;fontSize=17;fontColor=#000000;fillColor=#f0a30a;strokeColor=#BD7000;" vertex="1" parent="1">
                    <mxGeometry x="1255" y="750" width="205" height="100" as="geometry"/>
                </mxCell>
                <mxCell id="118" value="" style="edgeStyle=none;html=1;fontSize=17;fontColor=#FFFFFF;" edge="1" parent="1" source="115" target="117">
                    <mxGeometry relative="1" as="geometry"/>
                </mxCell>
                <mxCell id="125" value="" style="edgeStyle=none;html=1;fontSize=17;fontColor=#FFFFFF;" edge="1" parent="1" source="115" target="109">
                    <mxGeometry relative="1" as="geometry"/>
                </mxCell>
                <mxCell id="115" value="input = 2" style="rhombus;whiteSpace=wrap;html=1;fontSize=17;fontColor=#000000;fillColor=#e3c800;strokeColor=#B09500;" vertex="1" parent="1">
                    <mxGeometry x="1630" y="760" width="80" height="80" as="geometry"/>
                </mxCell>
                <mxCell id="117" value="run program" style="whiteSpace=wrap;html=1;fontSize=17;fontColor=#000000;fillColor=#fa6800;strokeColor=#C73500;" vertex="1" parent="1">
                    <mxGeometry x="1770" y="770" width="120" height="60" as="geometry"/>
                </mxCell>
                <mxCell id="123" value="" style="edgeStyle=none;html=1;fontSize=17;fontColor=#FFFFFF;" edge="1" parent="1" source="119" target="122">
                    <mxGeometry relative="1" as="geometry"/>
                </mxCell>
                <mxCell id="119" value="input = 8" style="rhombus;whiteSpace=wrap;html=1;fontSize=17;fontColor=#000000;fillColor=#f0a30a;strokeColor=#BD7000;" vertex="1" parent="1">
                    <mxGeometry x="873" y="900" width="80" height="80" as="geometry"/>
                </mxCell>
                <mxCell id="122" value="end" style="ellipse;whiteSpace=wrap;html=1;fontSize=17;fontColor=#ffffff;fillColor=#e51400;strokeColor=#B20000;" vertex="1" parent="1">
                    <mxGeometry x="1055" y="910" width="120" height="80" as="geometry"/>
                </mxCell>
            </root>
        </mxGraphModel>
    </diagram>
</mxfile>